<svg width="16" height="16" viewBox="0 0 16 16" fill="none" xmlns="http://www.w3.org/2000/svg">
<path d="M2.95809 0.0528926C3.01289 0.0528926 3.05725 0.0396694 3.05725 0.0264463C3.05725 0.00793388 3.8479 0 7.70203 0V2.20033C7.69942 4.03041 7.6942 4.42975 7.66289 4.56198C7.64201 4.64926 7.62374 4.76562 7.62374 4.82116C7.62374 4.87405 7.61331 4.9243 7.59765 4.93223C7.58199 4.94017 7.57155 4.98777 7.57155 5.03802C7.57155 5.08826 7.56112 5.13058 7.54546 5.13058C7.5298 5.13058 7.51937 5.15438 7.51937 5.18347C7.51937 5.21256 7.5011 5.28132 7.47762 5.33686C7.45413 5.38975 7.42543 5.45587 7.41238 5.48231C7.39933 5.50612 7.3889 5.54579 7.3889 5.56694C7.3889 5.5881 7.37846 5.60661 7.3628 5.60661C7.34714 5.60661 7.33671 5.62512 7.33671 5.64628C7.33671 5.66744 7.308 5.73355 7.27147 5.79174C7.23494 5.84992 7.20624 5.90281 7.20624 5.91074C7.20624 5.91868 7.17492 5.97422 7.13578 6.03769C7.09403 6.09851 7.05489 6.1514 7.04445 6.15669C7.0314 6.15934 7.02358 6.17256 7.02358 6.18843C7.02358 6.2043 6.99748 6.24397 6.96617 6.28099C6.93225 6.31537 6.89049 6.36298 6.87484 6.38678C6.85657 6.40793 6.84092 6.43174 6.84092 6.43967C6.84092 6.4476 6.72871 6.56661 6.59302 6.70413C6.45733 6.84165 6.3373 6.95537 6.32686 6.95537C6.31381 6.95537 6.27989 6.97389 6.24858 7.00033C6.21726 7.02678 6.17029 7.06645 6.1442 7.0876C6.1181 7.1114 6.03199 7.16959 5.95371 7.21719C5.87543 7.26744 5.77105 7.32827 5.72669 7.35736C5.67972 7.3838 5.62231 7.40496 5.60144 7.40496C5.58056 7.40496 5.5623 7.41289 5.5623 7.42612C5.5623 7.43669 5.5075 7.46578 5.43704 7.49223C5.3692 7.51868 5.29353 7.55306 5.26743 7.56628C5.24395 7.5795 5.19959 7.59008 5.17088 7.59008C5.14218 7.59008 5.11348 7.59802 5.10826 7.61124C5.10304 7.62182 5.04563 7.63769 4.97779 7.65091C4.91255 7.66149 4.85253 7.68 4.8447 7.69587C4.83688 7.71174 4.7612 7.72231 4.67509 7.72231C4.58898 7.72231 4.51853 7.73289 4.51853 7.74876C4.51853 7.76727 3.74875 7.77521 0.00421956 7.77521L0.00682898 5.57488C0.00682898 4.27901 0.0198761 3.30579 0.0329232 3.21322C0.0485798 3.12595 0.0642364 2.99107 0.0720646 2.91702C0.0772835 2.84033 0.0955495 2.77686 0.108597 2.77686C0.121644 2.77686 0.134691 2.73455 0.134691 2.6843C0.134691 2.63405 0.147738 2.59174 0.160785 2.59174C0.173832 2.59174 0.186879 2.57058 0.186879 2.54678C0.186879 2.52033 0.205145 2.46479 0.226021 2.41983C0.249506 2.37488 0.265162 2.31405 0.265162 2.28231C0.265162 2.24793 0.278209 2.22149 0.291256 2.22149C0.304304 2.22149 0.317351 2.20298 0.317351 2.18182C0.317351 2.16066 0.338226 2.10777 0.361711 2.06281C0.387805 2.0205 0.416509 1.98347 0.426947 1.98347C0.439994 1.98347 0.447822 1.95438 0.447822 1.91736C0.447822 1.88033 0.460869 1.85124 0.473916 1.85124C0.486963 1.85124 0.50001 1.83537 0.50001 1.8195C0.50001 1.80099 0.528714 1.75339 0.565246 1.71372C0.601778 1.6714 0.630482 1.62645 0.630482 1.61322C0.630482 1.6 0.643529 1.58678 0.656576 1.58678C0.669623 1.58678 0.68267 1.56298 0.68267 1.53388C0.68267 1.50479 0.700936 1.48099 0.721812 1.48099C0.742687 1.48099 0.760953 1.47306 0.760953 1.46248C0.760953 1.44926 0.781828 1.41752 0.807923 1.38843C0.834017 1.35934 0.888815 1.28793 0.930566 1.22975C0.974926 1.17421 1.05582 1.07901 1.11323 1.02347C1.17063 0.967934 1.22021 0.922975 1.22282 0.92562C1.22804 0.92562 1.25674 0.901818 1.28806 0.875372C1.32198 0.846281 1.382 0.793388 1.42636 0.756364C1.47072 0.719339 1.51247 0.687603 1.52291 0.687603C1.53334 0.687603 1.56727 0.661157 1.60119 0.629421C1.63511 0.595041 1.72905 0.53157 1.81255 0.489256C1.89344 0.446942 1.96129 0.401983 1.96129 0.391405C1.96129 0.378182 1.98999 0.370248 2.02652 0.370248C2.06306 0.370248 2.09176 0.357025 2.09176 0.343802C2.09176 0.330579 2.11264 0.317355 2.13612 0.317355C2.16221 0.317355 2.20658 0.298843 2.23528 0.277686C2.26398 0.253884 2.30834 0.238017 2.33183 0.238017C2.35792 0.238017 2.3788 0.224793 2.3788 0.21157C2.3788 0.198347 2.4075 0.185124 2.44403 0.185124C2.48056 0.185124 2.53014 0.174545 2.55363 0.161322C2.57972 0.150744 2.65801 0.121653 2.73107 0.0978512C2.80152 0.0740496 2.9059 0.0528926 2.95809 0.0528926Z" fill="#717982"/>
<path d="M8.36482 4.73388C8.32307 4.55405 8.31785 4.31603 8.31002 2.26909L8.30219 0H10.6115C12.125 0 12.9261 0.00793388 12.9339 0.0264463C12.9418 0.0396694 12.9913 0.0528926 13.0435 0.0528926C13.0983 0.0528926 13.2001 0.0740496 13.2732 0.0978512C13.3436 0.121653 13.4245 0.150744 13.448 0.161322C13.4741 0.174545 13.5184 0.185124 13.5471 0.185124C13.5758 0.185124 13.5993 0.195702 13.5993 0.21157C13.5993 0.224793 13.6254 0.238017 13.6567 0.238017C13.6907 0.238017 13.7402 0.253884 13.7689 0.277686C13.7976 0.298843 13.842 0.317355 13.8655 0.317355C13.8916 0.317355 13.9125 0.327934 13.9125 0.343802C13.9125 0.357025 13.9307 0.370248 13.9516 0.370248C13.9725 0.370248 14.0638 0.415207 14.1525 0.468099C14.2439 0.523636 14.3195 0.576529 14.3221 0.587107C14.3274 0.600331 14.343 0.608264 14.3561 0.608264C14.3691 0.608264 14.4004 0.624132 14.4213 0.64C14.4448 0.658512 14.4787 0.690248 14.4996 0.706116C14.5205 0.724628 14.5439 0.740496 14.5518 0.740496C14.5596 0.740496 14.5935 0.766942 14.6301 0.798678C14.664 0.833058 14.7109 0.875372 14.7344 0.89124C14.7553 0.909752 14.7788 0.92562 14.7866 0.92562C14.7944 0.92562 14.8545 0.981157 14.9197 1.04992C14.9849 1.12132 15.058 1.20331 15.0815 1.23769C15.105 1.27207 15.1441 1.32231 15.165 1.34612C15.1859 1.37256 15.2276 1.4281 15.2563 1.46777C15.285 1.50744 15.3242 1.55504 15.3398 1.5762C15.3581 1.59736 15.3737 1.6238 15.3737 1.63967C15.3737 1.65289 15.3816 1.66612 15.392 1.66612C15.4051 1.66612 15.4364 1.70843 15.4651 1.75868C15.4938 1.81157 15.5251 1.85124 15.5355 1.85124C15.5486 1.85124 15.5564 1.88033 15.5564 1.91736C15.5564 1.95438 15.5694 1.98347 15.5825 1.98347C15.5955 1.98347 15.6295 2.03636 15.6529 2.10248C15.679 2.1686 15.7077 2.22149 15.7182 2.22149C15.7312 2.22149 15.7391 2.2638 15.7391 2.31405C15.7391 2.3643 15.7521 2.40661 15.7652 2.40661C15.7782 2.40661 15.7965 2.44893 15.8043 2.49917C15.8121 2.54942 15.8304 2.59174 15.8434 2.59174C15.8565 2.59174 15.8695 2.63405 15.8695 2.6843C15.8695 2.73455 15.8826 2.77686 15.8956 2.77686C15.9087 2.77686 15.9217 2.84033 15.9217 2.91438C15.9217 2.99372 15.9348 3.07041 15.953 3.08893C15.9791 3.11537 15.9896 3.61521 16 7.77521H13.7428C12.2633 7.77521 11.4805 7.76727 11.4726 7.74876C11.4648 7.73289 11.3944 7.72231 11.3161 7.72231C11.2378 7.72231 11.1673 7.71174 11.1595 7.69587C11.1517 7.68 11.0917 7.66149 11.0264 7.65091C10.9586 7.63769 10.9012 7.62182 10.896 7.61124C10.8907 7.59802 10.849 7.59008 10.8072 7.59008C10.7655 7.59008 10.729 7.58215 10.729 7.57157C10.729 7.55835 10.6742 7.5319 10.6063 7.51074C10.5385 7.48959 10.468 7.45521 10.4498 7.43934C10.4315 7.42083 10.3923 7.40496 10.3636 7.40496C10.3349 7.40496 10.3115 7.39438 10.3115 7.37851C10.3115 7.36265 10.288 7.35207 10.2593 7.35207C10.2306 7.35207 10.2071 7.34149 10.2071 7.32562C10.2071 7.30975 10.1784 7.29388 10.1418 7.28595C10.1053 7.27802 10.0766 7.26215 10.0766 7.24628C10.0766 7.23041 10.0662 7.21983 10.0505 7.21983C10.0349 7.21983 10.0088 7.20397 9.98788 7.1881C9.96701 7.16959 9.92004 7.12992 9.87829 7.10083C9.83915 7.07174 9.79218 7.03207 9.7713 7.0162C9.75303 6.99769 9.72694 6.98182 9.71128 6.98182C9.69563 6.98182 9.57037 6.86545 9.42947 6.72529C9.28856 6.58248 9.13982 6.41851 9.09807 6.36033C9.05632 6.30215 9.00152 6.23074 8.97543 6.20165C8.94933 6.17256 8.92846 6.14083 8.92846 6.13025C8.92846 6.11702 8.9128 6.09322 8.89453 6.07736C8.87888 6.05884 8.82669 5.97421 8.78494 5.88959C8.74319 5.8076 8.69883 5.73884 8.68578 5.73884C8.67534 5.73884 8.66751 5.70975 8.66751 5.67273C8.66751 5.6357 8.65708 5.60661 8.64142 5.60661C8.62576 5.60661 8.61532 5.58281 8.61532 5.55372C8.61532 5.52463 8.60489 5.49554 8.58923 5.4876C8.57358 5.47967 8.56314 5.45058 8.56314 5.42149C8.56314 5.3924 8.54487 5.35008 8.524 5.32893C8.50312 5.30777 8.48485 5.25488 8.48485 5.20992C8.48485 5.16496 8.47442 5.13058 8.45876 5.13058C8.4431 5.13058 8.42745 5.08562 8.42223 5.03273C8.4144 4.97719 8.3883 4.84231 8.36482 4.73388Z" fill="#717982"/>
<path d="M0.00161013 10.4595C-0.00360872 9.14512 0.00421956 8.22744 0.0198761 8.21422C0.0329232 8.20364 1.04277 8.19835 2.26659 8.20364C4.01491 8.21157 4.49765 8.2195 4.52375 8.24595C4.54201 8.26446 4.61768 8.28033 4.70119 8.27769C4.77947 8.27769 4.85514 8.28826 4.8708 8.30149C4.88385 8.31207 4.96213 8.33851 5.04041 8.35703C5.11869 8.37554 5.21002 8.40727 5.24134 8.42843C5.27526 8.44694 5.33006 8.46281 5.36659 8.46281C5.40312 8.46281 5.43183 8.47339 5.43183 8.48397C5.43183 8.49454 5.48923 8.52628 5.5623 8.55537C5.63275 8.58446 5.69277 8.61884 5.69277 8.62942C5.69277 8.64 5.71625 8.64793 5.74496 8.64793C5.77366 8.64793 5.79714 8.66116 5.79714 8.67438C5.79714 8.69025 5.81019 8.70083 5.82846 8.70083C5.84672 8.70083 5.8963 8.72992 5.94066 8.76694C5.98241 8.80397 6.03199 8.83306 6.05026 8.83306C6.06853 8.83306 6.12071 8.87008 6.16768 8.91504C6.21465 8.96 6.26162 8.99438 6.27206 8.99438C6.2825 8.99438 6.35034 9.05256 6.42341 9.12397C6.49386 9.19802 6.56432 9.2562 6.57997 9.2562C6.59302 9.2562 6.60607 9.26678 6.60346 9.27736C6.60346 9.28793 6.67391 9.37256 6.76002 9.46248C6.84874 9.5524 6.9192 9.63702 6.9192 9.6476C6.9192 9.65818 6.95312 9.70843 6.99748 9.75868C7.03923 9.81157 7.08098 9.8724 7.08881 9.89884C7.09664 9.92529 7.10969 9.9438 7.12012 9.9438C7.13056 9.9438 7.15927 9.98612 7.18014 10.0364C7.20102 10.0893 7.2245 10.1316 7.23233 10.1316C7.24016 10.1316 7.26886 10.1845 7.29757 10.2506C7.32627 10.314 7.35758 10.3696 7.36802 10.3696C7.37846 10.3696 7.3889 10.3987 7.3889 10.4331C7.3889 10.4701 7.39933 10.4992 7.41499 10.4992C7.42804 10.4992 7.44108 10.5283 7.44108 10.56C7.44108 10.5917 7.45935 10.6499 7.48023 10.6843C7.5011 10.7213 7.51676 10.7795 7.51676 10.8112C7.51937 10.843 7.5298 10.8694 7.54546 10.8694C7.55851 10.8694 7.57677 10.9144 7.58199 10.9699C7.58721 11.0255 7.61331 11.1577 7.63679 11.2661C7.67854 11.446 7.68376 11.6945 7.70203 16H5.46314C3.44605 16 3.20338 15.9947 2.99984 15.955C2.8772 15.9286 2.76499 15.8995 2.75195 15.8889C2.74151 15.8757 2.69193 15.8678 2.64496 15.8678C2.59799 15.8678 2.56146 15.8572 2.56146 15.8413C2.56146 15.8281 2.54058 15.8175 2.51449 15.8175C2.491 15.8175 2.4336 15.799 2.39184 15.7779C2.34748 15.754 2.29269 15.7382 2.26659 15.7382C2.24311 15.7382 2.22223 15.725 2.22223 15.7091C2.22223 15.6959 2.19353 15.6826 2.157 15.6826C2.12046 15.6826 2.09176 15.6721 2.09176 15.6562C2.09176 15.643 2.07349 15.6298 2.05262 15.6298C2.03174 15.6298 1.97695 15.6112 1.93519 15.5848C1.89083 15.5583 1.85691 15.5293 1.85691 15.5187C1.85691 15.5081 1.83865 15.4975 1.81777 15.4975C1.7969 15.4975 1.77863 15.4869 1.77863 15.4711C1.77863 15.4579 1.75514 15.4446 1.72644 15.4446C1.69774 15.4446 1.67425 15.434 1.67425 15.4182C1.67425 15.405 1.6325 15.3732 1.58292 15.3468C1.53073 15.3203 1.48898 15.2912 1.49159 15.2807C1.49159 15.2701 1.47855 15.2595 1.4655 15.2595C1.44984 15.2595 1.40809 15.2331 1.37156 15.2013C1.33242 15.1696 1.25674 15.0982 1.20195 15.0426C1.14454 14.9871 1.09496 14.9421 1.08713 14.9421C1.0793 14.9421 1.05582 14.9263 1.03494 14.9025C1.01407 14.8813 0.995801 14.8575 0.995801 14.8496C0.995801 14.8443 0.969707 14.8073 0.935785 14.7729C0.904472 14.7359 0.862721 14.6883 0.844455 14.6671C0.826189 14.6433 0.813142 14.6195 0.813142 14.6116C0.813142 14.6063 0.784438 14.5745 0.747906 14.5455C0.711374 14.5164 0.68267 14.4793 0.68267 14.4608C0.68267 14.4423 0.661795 14.4026 0.63831 14.3736C0.612216 14.3445 0.557418 14.2704 0.518276 14.2096C0.479135 14.1488 0.447822 14.08 0.447822 14.0562C0.447822 14.035 0.434775 14.0165 0.421728 14.0165C0.406071 14.0165 0.390415 13.9874 0.382586 13.9504C0.374758 13.916 0.356492 13.8843 0.343445 13.8843C0.327788 13.8843 0.317351 13.8552 0.317351 13.8182C0.317351 13.7838 0.304304 13.7521 0.291256 13.7521C0.2756 13.7521 0.265162 13.7177 0.265162 13.6727C0.265162 13.6304 0.252115 13.5934 0.239068 13.5934C0.223411 13.5934 0.207755 13.5537 0.199927 13.5008C0.192098 13.4506 0.173832 13.4083 0.160785 13.4083C0.145129 13.4083 0.134691 13.3686 0.134691 13.3157C0.134691 13.2655 0.121644 13.2231 0.108597 13.2231C0.09294 13.2231 0.0772835 13.1623 0.0720646 13.0856C0.0642364 13.0089 0.0485798 12.8873 0.0329232 12.8132C0.0172667 12.7312 0.00421956 11.8506 0.00161013 10.4595Z" fill="#717982"/>
<path d="M11.4726 8.25388C11.4883 8.24066 11.6031 8.22479 11.7336 8.2195C11.8615 8.21421 12.8713 8.21157 15.987 8.21157V10.5521C15.987 12.4007 15.9791 12.8926 15.953 12.8979C15.9322 12.9031 15.9217 12.9613 15.9217 13.0645C15.9217 13.1544 15.9087 13.2231 15.8956 13.2231C15.88 13.2231 15.8695 13.2575 15.8669 13.2972C15.8669 13.3369 15.8487 13.3924 15.8278 13.4215C15.8069 13.4506 15.7912 13.5035 15.7912 13.5352C15.7912 13.5669 15.7782 13.5934 15.7652 13.5934C15.7495 13.5934 15.7391 13.6304 15.7391 13.6727C15.7391 13.7177 15.7286 13.7521 15.7182 13.7521C15.7077 13.7521 15.6764 13.8129 15.6477 13.8843C15.619 13.9583 15.5851 14.0192 15.5747 14.0192C15.5642 14.0192 15.5564 14.0377 15.5564 14.0641C15.5538 14.0906 15.5251 14.1488 15.4912 14.1964C15.4546 14.244 15.4259 14.2942 15.4259 14.3074C15.4259 14.3233 15.4155 14.3365 15.4051 14.3365C15.3946 14.3365 15.3503 14.3894 15.3085 14.4555C15.2641 14.519 15.2198 14.5719 15.2093 14.5719C15.1989 14.5719 15.1911 14.5851 15.1911 14.5983C15.1911 14.6142 15.165 14.6565 15.1311 14.6962C15.0997 14.7359 14.9902 14.8496 14.8858 14.9554C14.784 15.0585 14.6692 15.1643 14.6301 15.1934C14.5883 15.2225 14.5335 15.2701 14.5022 15.2939C14.4709 15.3203 14.4422 15.3415 14.4343 15.3415C14.4265 15.3415 14.3795 15.3759 14.33 15.4182C14.2804 15.4631 14.2178 15.4975 14.1917 15.4975C14.1682 15.4975 14.1473 15.5081 14.1473 15.5187C14.1473 15.5293 14.1108 15.5583 14.069 15.5848C14.0247 15.6112 13.9725 15.6298 13.9516 15.6298C13.9307 15.6298 13.9125 15.643 13.9125 15.6562C13.9125 15.6721 13.8838 15.6826 13.8472 15.6826C13.8107 15.6826 13.782 15.6959 13.782 15.7091C13.782 15.725 13.7611 15.7355 13.735 15.7355C13.7115 15.7355 13.6672 15.754 13.6385 15.7752C13.6098 15.7964 13.5524 15.8149 13.5132 15.8149C13.4741 15.8149 13.4375 15.8281 13.4297 15.8413C13.4219 15.8572 13.3749 15.8678 13.3253 15.8678C13.2758 15.8678 13.234 15.8783 13.234 15.8889C13.234 15.8995 13.1557 15.926 13.0566 15.9471C12.9104 15.9815 12.4955 15.9894 8.30219 16L8.31002 13.7336C8.31524 12.1071 8.32829 11.4169 8.34916 11.2926C8.36743 11.2 8.39352 11.1021 8.40657 11.0757C8.41962 11.0493 8.43267 10.9937 8.43267 10.9488C8.43267 10.9064 8.4431 10.8694 8.45876 10.8694C8.47181 10.8694 8.48485 10.8298 8.48485 10.7769C8.48485 10.7266 8.49529 10.6843 8.51095 10.6843C8.524 10.6843 8.54226 10.6446 8.55009 10.5917C8.55792 10.5415 8.57358 10.4992 8.58923 10.4992C8.60228 10.4992 8.61532 10.4701 8.61532 10.4331C8.61532 10.3987 8.62576 10.3669 8.64142 10.3669C8.65447 10.3669 8.66751 10.3431 8.66751 10.314C8.66751 10.285 8.67795 10.2612 8.69361 10.2612C8.70666 10.2612 8.7197 10.2453 8.7197 10.2215C8.7197 10.2003 8.73275 10.1686 8.75101 10.1501C8.76928 10.1316 8.8032 10.0813 8.82408 10.0364C8.84496 9.99405 8.87627 9.9438 8.89453 9.92529C8.9128 9.90678 8.92846 9.88297 8.92846 9.8724C8.92846 9.86182 8.96238 9.81157 9.00674 9.75868C9.04849 9.70843 9.08502 9.65818 9.08502 9.6476C9.08502 9.63702 9.11373 9.59735 9.15026 9.56033C9.18679 9.52595 9.21549 9.48628 9.21549 9.4757C9.21288 9.46512 9.24159 9.44132 9.2729 9.42281C9.30682 9.4043 9.35118 9.35934 9.37206 9.32231C9.39293 9.28529 9.41903 9.2562 9.42947 9.2562C9.4399 9.2562 9.50253 9.20331 9.56516 9.13719C9.63039 9.07372 9.69302 9.01818 9.70607 9.01818C9.71911 9.01818 9.7713 8.97851 9.82088 8.92562C9.87046 8.87537 9.93048 8.83306 9.95396 8.83306C9.97745 8.83306 9.99832 8.82248 9.99832 8.80661C9.99832 8.79339 10.027 8.77488 10.0636 8.76694C10.1001 8.76165 10.1288 8.74314 10.1288 8.72727C10.1288 8.71405 10.1471 8.70083 10.1679 8.70083C10.1888 8.70083 10.2071 8.69025 10.2071 8.67438C10.2071 8.66116 10.2306 8.64793 10.2593 8.64793C10.288 8.64793 10.3115 8.64 10.3115 8.62942C10.3115 8.61884 10.3689 8.58446 10.4419 8.55537C10.5124 8.52628 10.5724 8.49454 10.5724 8.48397C10.5724 8.47339 10.6063 8.46281 10.6507 8.46281C10.6924 8.46281 10.729 8.45488 10.729 8.4443C10.7264 8.43372 10.8072 8.40198 10.9038 8.37554C11.0003 8.34909 11.1021 8.31736 11.1256 8.30413C11.1517 8.29091 11.2352 8.27769 11.3109 8.27769C11.3865 8.27769 11.4596 8.26711 11.4726 8.25388Z" fill="#717982"/>
</svg>
